# xmcd CD database file
#
# Track frame offsets:
#	150
#	30997
#	67587
#	73291
#	101970
#	138065
#	172032
#	203086
#	233488
#	266175
#	294182
#
# Disc length: 4327 seconds
#
# Revision: 0
# Processed by: cddbd v1.4PL0 Copyright (c) Steve Scherf et al.
# Submitted via: CDex 1.50beta9
#
DISCID=9710e50b
DTITLE=Christian McBride - Sci-Fi
DYEAR=2000
DGENRE=Jazz
TTITLE0=Aja
TTITLE1=Uhura's Moment Returned
TTITLE2=Xerxes
TTITLE3=Lullaby for a ladybug
TTITLE4=Science Fiction
TTITLE5=Walking on the moon
TTITLE6=Havona
TTITLE7=I guess I'll have to forget
TTITLE8=Butterfly dreams
TTITLE9=Via Mwandishi
TTITLE10=The Sci-Fi Outro
EXTD=YEAR: 2000
EXTT0=
EXTT1=
EXTT2=
EXTT3=
EXTT4=
EXTT5=
EXTT6=
EXTT7=
EXTT8=
EXTT9=
EXTT10=
PLAYORDER=
